<?xml version="1.0" encoding="UTF-8"?>
<svg width="40" height="40" viewBox="0 0 40 40" fill="none" xmlns="http://www.w3.org/2000/svg">
  <path d="M29.1 12.1L31.3 8.2C31.6 7.7 31.5 7 31 6.7C30.5 6.4 29.8 6.5 29.5 7L27.2 11C25.6 10.4 23.9 10 22 10C20.1 10 18.4 10.4 16.8 11L14.5 7C14.2 6.5 13.5 6.4 13 6.7C12.5 7 12.4 7.7 12.7 8.2L14.9 12.1C11.9 13.9 10 17.2 10 21H34C34 17.2 32.1 13.9 29.1 12.1ZM16 17C15.4 17 15 16.6 15 16C15 15.4 15.4 15 16 15C16.6 15 17 15.4 17 16C17 16.6 16.6 17 16 17ZM28 17C27.4 17 27 16.6 27 16C27 15.4 27.4 15 28 15C28.6 15 29 15.4 29 16C29 16.6 28.6 17 28 17ZM10 22C8.9 22 8 22.9 8 24V32C8 33.1 8.9 34 10 34H11V38C11 39.1 11.9 40 13 40C14.1 40 15 39.1 15 38V34H17V38C17 39.1 17.9 40 19 40C20.1 40 21 39.1 21 38V34H23V38C23 39.1 23.9 40 25 40C26.1 40 27 39.1 27 38V34H29V38C29 39.1 29.9 40 31 40C32.1 40 33 39.1 33 38V34H34C35.1 34 36 33.1 36 32V24C36 22.9 35.1 22 34 22H10Z" fill="#D4D4D4"/>
</svg>
