<svg width="16" height="16" viewBox="0 0 16 16" fill="none" xmlns="http://www.w3.org/2000/svg">
<rect width="16" height="16" rx="8" fill="white"/>
<path fill-rule="evenodd" clip-rule="evenodd" d="M7.7007 0.721948C7.78603 0.737948 7.9247 0.791281 8.0047 0.839281C8.0847 0.887281 8.17537 0.977948 8.20737 1.04728C8.23403 1.11128 8.2607 1.22328 8.2607 1.29795C8.2607 1.37261 8.23403 1.49528 8.20203 1.58061C8.17003 1.66061 7.78603 2.15661 7.35403 2.68461C6.9167 3.21261 6.2127 4.06595 5.78603 4.57795C5.35937 5.08995 4.97003 5.59661 4.92203 5.69795C4.8687 5.79928 4.8207 5.99128 4.8047 6.12461C4.7887 6.26861 4.81537 6.47128 4.8687 6.63128C4.9167 6.78061 5.0287 6.98861 5.1247 7.10595C5.2207 7.21795 5.41803 7.36728 5.83403 7.56461L8.1007 7.56995C10.1434 7.57528 10.3994 7.58595 10.6874 7.67661C10.8954 7.74061 11.098 7.85795 11.274 8.00728C11.4394 8.15128 11.5887 8.34861 11.8074 8.81795L11.8234 8.41795C11.834 8.11928 11.8127 7.94328 11.7327 7.72461C11.674 7.56461 11.546 7.32461 11.45 7.19661C11.354 7.06861 11.13 6.87128 10.954 6.75395C10.778 6.64195 10.5487 6.51928 10.4474 6.48728C10.346 6.45528 9.8127 6.41795 8.2607 6.39128L8.37803 6.23661C8.44737 6.15661 8.9967 5.48995 9.59937 4.75928C10.202 4.02861 10.8527 3.27128 11.0394 3.07395C11.226 2.87661 11.4874 2.67395 11.6207 2.60995C11.7754 2.54061 11.9727 2.49795 12.1807 2.49795C12.4314 2.49795 12.57 2.52995 12.8207 2.65261C13.0234 2.74861 13.2527 2.92461 13.434 3.12195C13.594 3.29795 13.85 3.61795 14.0047 3.83661C14.154 4.04995 14.3994 4.47128 14.5434 4.76461C14.6927 5.05795 14.8474 5.42061 14.9007 5.56461C14.9487 5.71395 15.034 6.01261 15.0874 6.23128C15.146 6.44995 15.2154 6.83395 15.2474 7.08461C15.274 7.33528 15.3007 7.74061 15.3007 7.99128C15.3007 8.24195 15.274 8.64728 15.2474 8.89795C15.2207 9.14861 15.146 9.54328 15.0874 9.77795C15.0234 10.0126 14.89 10.4233 14.7834 10.6846C14.6767 10.9513 14.5007 11.3299 14.3834 11.5379C14.2714 11.7459 14.0527 12.0766 13.9034 12.2846C13.7487 12.4926 13.3967 12.8873 13.114 13.1646C12.8367 13.4419 12.3887 13.8153 12.1274 13.9913C11.8607 14.1673 11.4554 14.4019 11.2207 14.5193C10.986 14.6313 10.65 14.7806 10.474 14.8446C10.298 14.9139 9.95137 15.0153 9.7007 15.0739C9.45003 15.1326 9.05537 15.2126 8.8207 15.2446C8.58603 15.2819 8.31937 15.2926 8.23403 15.2766C8.1487 15.2553 8.02603 15.2019 7.96203 15.1486C7.90337 15.1006 7.82337 15.0046 7.79137 14.9406C7.75403 14.8713 7.72737 14.7593 7.72737 14.6846C7.72737 14.6099 7.75937 14.4873 7.79137 14.4073C7.8287 14.3219 8.0527 14.0286 8.28737 13.7459C8.52203 13.4633 9.2047 12.6419 9.80737 11.9166C10.41 11.1966 10.97 10.4819 11.05 10.3273C11.162 10.1139 11.194 9.97528 11.194 9.75128C11.194 9.58595 11.1514 9.36195 11.0927 9.24461C11.0394 9.12728 10.938 8.95661 10.8634 8.87128C10.794 8.78595 10.6127 8.65261 10.2074 8.44461L5.40737 8.39128L5.11403 8.24728C4.94337 8.16728 4.7247 7.99661 4.59137 7.84728C4.46337 7.70861 4.33537 7.51128 4.29803 7.41528C4.2607 7.31928 4.21803 7.24461 4.1967 7.24461C4.17003 7.24461 4.15403 7.39928 4.15403 7.59128C4.15403 7.80461 4.1967 8.05528 4.2607 8.24728C4.3247 8.41261 4.46337 8.67395 4.57537 8.81795C4.68737 8.96728 4.91137 9.16461 5.06603 9.26061C5.22603 9.35128 5.48737 9.46861 5.64737 9.51128C5.85003 9.56461 6.20203 9.59128 6.79403 9.59128C7.26337 9.59128 7.66337 9.60195 7.69003 9.61795C7.71137 9.63395 7.6687 9.70861 7.59937 9.79395C7.53003 9.87395 7.02337 10.4766 6.47403 11.1379C5.93003 11.7993 5.29537 12.5406 5.07137 12.7859C4.81003 13.0686 4.5647 13.2819 4.39403 13.3673C4.1967 13.4686 4.04203 13.5006 3.80737 13.5059C3.5407 13.5059 3.4287 13.4739 3.14603 13.3193C2.9487 13.2179 2.68737 13.0099 2.5327 12.8393C2.38337 12.6793 2.13803 12.3646 1.9887 12.1459C1.83403 11.9326 1.6047 11.5379 1.47137 11.2713C1.33803 11.0099 1.1567 10.5779 1.07137 10.3113C0.980699 10.0499 0.874032 9.63928 0.831365 9.40461C0.783365 9.16995 0.730032 8.72728 0.714032 8.41795C0.687365 8.08195 0.698032 7.61795 0.735365 7.27128C0.772699 6.95128 0.863365 6.44461 0.938032 6.15128C1.0127 5.85795 1.1567 5.42595 1.25803 5.19128C1.35937 4.95661 1.51403 4.63128 1.6047 4.47128C1.69003 4.31128 1.89803 3.99128 2.06337 3.75661C2.23403 3.52728 2.5487 3.15395 2.76737 2.92995C2.99137 2.70595 3.3647 2.38061 3.59403 2.20461C3.8287 2.02861 4.20203 1.78328 4.4207 1.65528C4.63937 1.53261 5.0607 1.33528 5.35403 1.21795C5.64737 1.10595 6.09537 0.961948 6.3567 0.903281C6.6127 0.839281 6.9807 0.769948 7.18337 0.743281C7.3807 0.716614 7.61537 0.711281 7.7007 0.721948ZM9.9727 1.16995L10.33 1.30861C10.5274 1.38328 10.73 1.45261 10.778 1.46328C10.8314 1.47395 10.874 1.50061 10.874 1.52728C10.874 1.54861 10.5007 2.02328 10.0474 2.57795C9.5887 3.13795 8.69803 4.22061 6.92737 6.39128H6.45803C6.20203 6.39128 5.9407 6.38061 5.8767 6.36461C5.80737 6.34861 5.75403 6.31661 5.75403 6.28461C5.75403 6.25795 6.1327 5.78328 6.5967 5.22861C7.05537 4.67928 8.0047 3.53795 8.70337 2.70061L9.9727 1.16995ZM9.08737 9.58595L9.6047 9.60195C9.90337 9.61261 10.1487 9.64461 10.1914 9.67661C10.2447 9.72995 10.202 9.80995 9.96737 10.0873C9.80737 10.2793 9.00203 11.2499 8.1807 12.2366C7.35937 13.2286 6.53803 14.2099 6.0207 14.8179L5.65803 14.6793C5.4607 14.6046 5.25803 14.5299 5.2047 14.5193C5.1567 14.5086 5.11403 14.4766 5.11403 14.4553C5.11403 14.4339 5.51403 13.9326 6.0047 13.3459C6.49537 12.7593 7.39137 11.6713 7.99403 10.9299L9.08737 9.58595Z" fill="#211D1E"/>
</svg>
