<?xml version="1.0" encoding="UTF-8"?>
<svg width="40" height="40" viewBox="0 0 40 40" fill="none" xmlns="http://www.w3.org/2000/svg">
  <path d="M30.82 11.524c-1.984-2.406-4.687-2.612-5.698-2.654-2.422-0.248-4.728 1.434-5.95 1.434-1.231 0-3.132-1.4-5.145-1.363-2.647 0.041-5.087 1.551-6.45 3.94-2.75 4.773-0.702 11.834 1.97 15.707 1.306 1.89 2.864 4.016 4.907 3.94 1.97-0.077 2.714-1.27 5.095-1.27 2.372 0 3.066 1.27 5.161 1.231 2.13-0.041 3.48-1.931 4.786-3.827 1.508-2.199 2.13-4.327 2.163-4.438-0.049-0.017-4.141-1.59-4.182-6.305-0.041-3.94 3.215-5.831 3.364-5.925-1.847-2.717-4.703-3.017-5.7-3.091M25.387 5.797c1.088-1.32 1.821-3.157 1.623-4.984-1.567 0.062-3.471 1.044-4.6 2.364-1.012 1.171-1.897 3.041-1.657 4.828 1.747 0.138 3.53-0.892 4.634-2.208" fill="#D4D4D4"/>
</svg>
