<?xml version="1.0" encoding="UTF-8"?>
<svg width="40" height="40" viewBox="0 0 40 40" fill="none" xmlns="http://www.w3.org/2000/svg">
  <path d="M20 4C11.2 4 4 11.2 4 20C4 28.8 11.2 36 20 36C28.8 36 36 28.8 36 20C36 11.2 28.8 4 20 4ZM18.4 33.8C12 32.9 7 27 7 20C7 19.4 7 18.7 7.1 18.1L16 27V28C16 29.7 17.3 31 19 31V33.8H18.4ZM30.3 29.8C29.9 28.7 28.8 28 27.5 28H27V24C27 23.4 26.6 23 26 23H14V20H17C17.6 20 18 19.6 18 19V16H21C22.7 16 24 14.7 24 13V11.8C27.4 13.2 30 16.3 30.9 20.1C30.3 20.3 30 20.9 30 21.5V23.5C30 24.3 30.7 25 31.5 25C32.1 25 32.6 24.6 32.8 24.1C32.9 24.7 33 25.4 33 26C33 27.4 32.7 28.7 32.3 29.9L30.3 29.8Z" fill="#D4D4D4"/>
</svg>
